<svg xmlns="http://www.w3.org/2000/svg" xmlns:xlink="http://www.w3.org/1999/xlink" version="1.1" x="0px" y="0px" viewBox="0 0 100 100" enable-background="new 0 0 100 100" xml:space="preserve"><polygon points="5,59 27.5,79.25 50,59 72.5,79.25 95,59 95,68 72.5,88.25 50,68 27.5,88.25 5,68 "></polygon><polygon points="5,5 27.5,25.25 50,5 72.5,25.25 95,5 95,14 72.5,34.25 50,14 27.5,34.25 5,14 "></polygon><path d="M27.5,7.25L25,5H15l12.5,11.25c0,0,6.327-5.694,12.5-11.25H30C29.506,5.444,27.5,7.25,27.5,7.25z"></path><path d="M72.5,7.25c0,0-2.006-1.806-2.5-2.25H60c6.173,5.556,12.5,11.25,12.5,11.25L85,5H75L72.5,7.25z"></path><polygon points="5,77 5,86 15,95 25,95 "></polygon><polygon points="95,77 75,95 85,95 95,86 "></polygon><path d="M50,77c0,0-16.049,14.444-20,18h10c4.938-4.444,10-9,10-9s5.062,4.556,10,9h10C66.049,91.444,50,77,50,77z"></path><polygon points="5,23 27.5,43.25 50,23 72.5,43.25 95,23 95,32 72.5,52.25 50,32 27.5,52.25 5,32 "></polygon><polygon points="5,41 27.5,61.25 50,41 72.5,61.25 95,41 95,50 72.5,70.25 50,50 27.5,70.25 5,50 "></polygon></svg>