<svg id="Layer_1" data-name="Layer 1" xmlns="http://www.w3.org/2000/svg" viewBox="0 0 100 100"><defs><style>.cls-1{fill:#fff;}</style></defs><polygon class="cls-1" points="100 40 75 17.5 50 40 25 17.5 0 40 0 30 25 7.5 50 30 75 7.5 100 30 100 40"/><polygon class="cls-1" points="100 100 75 77.5 50 100 25 77.5 0 100 0 90 25 67.5 50 90 75 67.5 100 90 100 100"/><path class="cls-1" d="M75,97.5l2.78,2.5H88.89L75,87.5,61.11,100H72.22Z"/><path class="cls-1" d="M25,97.5l2.78,2.5H38.89L25,87.5,11.11,100H22.22Z"/><polygon class="cls-1" points="100 20 100 10 88.89 0 77.78 0 100 20"/><polygon class="cls-1" points="0 20 22.22 0 11.11 0 0 10 0 20"/><path class="cls-1" d="M50,20,72.22,0H61.11L50,10,38.89,0H27.78Z"/><polygon class="cls-1" points="100 80 75 57.5 50 80 25 57.5 0 80 0 70 25 47.5 50 70 75 47.5 100 70 100 80"/><polygon class="cls-1" points="100 60 75 37.5 50 60 25 37.5 0 60 0 50 25 27.5 50 50 75 27.5 100 50 100 60"/></svg>